<?xml version="1.0" encoding="utf-8"?>
<!-- Generator: Adobe Illustrator 19.2.1, SVG Export Plug-In . SVG Version: 6.00 Build 0)  -->
<svg version="1.1" id="layer" xmlns="http://www.w3.org/2000/svg" xmlns:xlink="http://www.w3.org/1999/xlink" x="0px" y="0px"
	 viewBox="0 0 652 652" style="enable-background:new 0 0 652 652;" xml:space="preserve">
<style type="text/css">
	.st0{fill:#404041;}
	.st1{fill:#FFFFFF;}
	.st2{fill:#F38020;}
	.st3{fill:#FAAE40;}
</style>
<path class="st0" d="M616.3,383.6c-2.8,0-5.1-2.3-5.1-5.1c0-2.8,2.3-5.1,5.1-5.1c2.8,0,5.1,2.3,5.1,5.1
	C621.3,381.2,619,383.6,616.3,383.6 M616.3,374.4c-2.3,0-4.1,1.8-4.1,4.1c0,2.3,1.8,4.1,4.1,4.1s4.1-1.8,4.1-4.1
	C620.3,376.2,618.5,374.4,616.3,374.4 M618.8,381.1h-1.2l-1-1.9h-1.3v1.9h-1.1v-5.6h2.7c1.2,0,1.9,0.8,1.9,1.8
	c0,0.8-0.5,1.4-1.2,1.7L618.8,381.1z M616.8,378.2c0.4,0,0.8-0.3,0.8-0.8c0-0.7-0.3-0.8-0.8-0.8h-1.7v1.7H616.8z M85.7,372.9h13
	v35.5h22.6v11.4H85.7L85.7,372.9z M134.8,396.4v-0.2c0-13.4,10.9-24.4,25.3-24.4c14.4,0,25.1,10.8,25.1,24.2v0.2
	c0,13.4-10.9,24.4-25.3,24.4S134.8,409.9,134.8,396.4 M172,396.4v-0.2c0-6.8-4.8-12.6-12-12.6c-7.1,0-11.9,5.8-11.9,12.5v0.2
	c0,6.8,4.8,12.6,11.9,12.6C167.3,408.9,172,403.2,172,396.4 M201.2,399.2v-26.3h13.2v26c0,6.8,3.4,9.9,8.6,9.9s8.6-3.1,8.6-9.6
	v-26.4h13.2v26c0,15.1-8.6,21.7-22,21.7C209.5,420.5,201.2,413.9,201.2,399.2 M264.6,372.9h18c16.7,0,26.5,9.6,26.5,23.1v0.2
	c0,13.5-9.9,23.5-26.7,23.5h-17.8L264.6,372.9L264.6,372.9z M282.9,408.2c7.8,0,12.9-4.3,12.9-11.9v-0.2c0-7.5-5.2-11.9-12.9-11.9
	h-5.3v23.8L282.9,408.2L282.9,408.2L282.9,408.2z M328,372.9h37.5v11.4h-24.5v8h22.2V403h-22.2v16.7H328V372.9z M383.5,372.9h12.9
	v35.5h22.7v11.4h-35.6V372.9z M453,372.5h12.5l20,47.2h-13.9l-3.4-8.3h-18l-3.3,8.3h-13.6L453,372.5L453,372.5z M464.5,401.3
	l-5.2-13.3l-5.3,13.3H464.5z M502.2,372.9h22.1c7.2,0,12.1,1.8,15.3,5.1c2.8,2.7,4.2,6.3,4.2,10.9v0.2c0,7.2-3.8,11.9-9.6,14.4
	l11.2,16.4h-15l-9.4-14.2h-5.7v14.2h-13L502.2,372.9L502.2,372.9z M523.8,395.3c4.4,0,6.9-2.2,6.9-5.5v-0.2c0-3.7-2.7-5.5-7-5.5
	h-8.5v11.2H523.8L523.8,395.3z M562.5,372.9h37.7v11h-24.8v7.1h22.5v10.3h-22.5v7.4h25.1v11h-38L562.5,372.9z M57.3,401.9
	c-1.8,4.1-5.7,7-10.7,7c-7.1,0-11.9-5.9-11.9-12.6v-0.2c0-6.8,4.8-12.5,11.9-12.5c5.3,0,9.4,3.3,11.1,7.8h13.7
	c-2.2-11.2-12-19.5-24.7-19.5c-14.4,0-25.3,10.9-25.3,24.4v0.2c0,13.4,10.7,24.2,25.1,24.2c12.4,0,22-8,24.5-18.7L57.3,401.9
	L57.3,401.9z"/>
<path class="st1" d="M584.8,298.2L549,277.7l-6.2-2.7l-146.5,1v74.4h188.5L584.8,298.2z"/>
<path class="st2" d="M519.6,343.5c1.8-6,1.1-11.5-1.8-15.6c-2.7-3.8-7.2-5.9-12.6-6.2l-102.8-1.3c-0.7,0-1.3-0.3-1.6-0.8
	s-0.4-1.2-0.3-1.8c0.3-1,1.3-1.8,2.4-1.8l103.7-1.3c12.3-0.6,25.6-10.5,30.3-22.7l5.9-15.4c0.3-0.7,0.3-1.3,0.2-2
	c-6.7-30.2-33.6-52.8-65.9-52.8c-29.7,0-54.9,19.2-63.9,45.8c-5.8-4.3-13.3-6.7-21.3-5.9c-14.3,1.4-25.7,12.9-27.1,27.1
	c-0.3,3.7-0.1,7.3,0.8,10.6c-23.3,0.7-41.9,19.7-41.9,43.2c0,2.1,0.2,4.2,0.4,6.3c0.2,1,1,1.8,2,1.8h189.7c1.1,0,2.1-0.8,2.4-1.8
	L519.6,343.5L519.6,343.5z"/>
<path class="st3" d="M552.3,277.6c-0.9,0-1.9,0-2.8,0.1c-0.7,0-1.3,0.5-1.5,1.2l-4,13.9c-1.8,6-1.1,11.5,1.8,15.6
	c2.7,3.8,7.2,5.9,12.6,6.2l21.9,1.3c0.7,0,1.3,0.3,1.6,0.8c0.3,0.5,0.4,1.3,0.3,1.8c-0.3,1-1.3,1.8-2.4,1.8l-22.8,1.3
	c-12.4,0.6-25.6,10.5-30.3,22.7l-1.7,4.3c-0.3,0.8,0.3,1.7,1.2,1.7h78.3c0.9,0,1.8-0.6,2-1.5c1.3-4.8,2.1-9.9,2.1-15.2
	C608.5,302.8,583.3,277.6,552.3,277.6"/>
</svg>
